HIERARCHY
ROOT Hips
{
	OFFSET 0.000000 0.000000 0.000000
	CHANNELS 6 Xposition Yposition Zposition Xrotation Yrotation Zrotation
	JOINT LeftUpLeg_virtual
	{
		OFFSET 0.000000 0.000000 0.000000
		CHANNELS 3 Xrotation Yrotation Zrotation
		JOINT LeftUpLeg
		{
			OFFSET 10.205400 -3.823500 0.155100
			CHANNELS 3 Xrotation Yrotation Zrotation
			JOINT LeftLeg
			{
				OFFSET 0.708757 -12.982077 0.567790
				CHANNELS 3 Xrotation Yrotation Zrotation
				JOINT LeftFoot
				{
					OFFSET -0.708756 -10.717838 -2.184338
					CHANNELS 3 Xrotation Yrotation Zrotation
					JOINT LeftToeBase
					{
						OFFSET 0.108149 -7.191104 7.560241
						CHANNELS 3 Xrotation Yrotation Zrotation
						JOINT LeftToe_End
						{
							OFFSET 0.070230 0.081724 4.490308
							CHANNELS 3 Xrotation Yrotation Zrotation
							End Site
							{
								OFFSET 0 0 0
							}
						}
					}
				}
			}
		}
	}
	JOINT RightUpLeg_virtual
	{
		OFFSET 0.000000 0.000000 0.000000
		CHANNELS 3 Xrotation Yrotation Zrotation
		JOINT RightUpLeg
		{
			OFFSET -10.205400 -3.823500 0.005500
			CHANNELS 3 Xrotation Yrotation Zrotation
			JOINT RightLeg
			{
				OFFSET -0.708756 -12.982134 0.610632
				CHANNELS 3 Xrotation Yrotation Zrotation
				JOINT RightFoot
				{
					OFFSET 0.708754 -10.717769 -1.945823
					CHANNELS 3 Xrotation Yrotation Zrotation
					JOINT RightToeBase
					{
						OFFSET -0.108140 -7.191069 7.372968
						CHANNELS 3 Xrotation Yrotation Zrotation
						JOINT RightToe_End
						{
							OFFSET -0.070227 0.081735 4.479403
							CHANNELS 3 Xrotation Yrotation Zrotation
							End Site
							{
								OFFSET 0 0 0
							}
						}
					}
				}
			}
		}
	}
	JOINT Spine_virtual
	{
		OFFSET 0.000000 0.000000 0.000000
		CHANNELS 3 Xrotation Yrotation Zrotation
		JOINT Spine
		{
			OFFSET 0.000000 6.876099 0.125700
			CHANNELS 3 Xrotation Yrotation Zrotation
			JOINT Spine1
			{
				OFFSET 0.000000 5.730043 0.104720
				CHANNELS 3 Xrotation Yrotation Zrotation
				JOINT Spine1_split
				{
					OFFSET 0.000000 5.730043 0.104720
					CHANNELS 3 Xrotation Yrotation Zrotation
					JOINT Spine2
					{
						OFFSET 0.000000 5.730043 0.104720
						CHANNELS 3 Xrotation Yrotation Zrotation
						JOINT Neck_virtual
						{
							OFFSET 0.000000 0.000000 0.000000
							CHANNELS 3 Xrotation Yrotation Zrotation
							JOINT Neck
							{
								OFFSET 0.000000 10.314075 0.188496
								CHANNELS 3 Xrotation Yrotation Zrotation
								JOINT Head
								{
									OFFSET 0.000000 7.643700 -2.377400
									CHANNELS 3 Xrotation Yrotation Zrotation
									JOINT HeadTop_End
									{
										OFFSET 0.000000 43.788605 -13.619600
										CHANNELS 3 Xrotation Yrotation Zrotation
										End Site
										{
											OFFSET 0 0 0
										}
									}
								}
							}
						}
						JOINT LeftShoulder_virtual
						{
							OFFSET 0.000000 0.000000 0.000000
							CHANNELS 3 Xrotation Yrotation Zrotation
							JOINT LeftShoulder
							{
								OFFSET 2.196100 4.412489 0.087492
								CHANNELS 3 Xrotation Yrotation Zrotation
								JOINT LeftShoulder_split
								{
									OFFSET 2.196100 4.412489 0.087492
									CHANNELS 3 Xrotation Yrotation Zrotation
									JOINT LeftArm
									{
										OFFSET 8.771219 -2.981674 -0.026999
										CHANNELS 3 Xrotation Yrotation Zrotation
										JOINT LeftForeArm
										{
											OFFSET 8.512804 0.000000 -0.000000
											CHANNELS 3 Xrotation Yrotation Zrotation
											JOINT LeftHand
											{
												OFFSET 18.484802 0.000000 -0.000000
												CHANNELS 3 Xrotation Yrotation Zrotation
												End Site
												{
													OFFSET 0 0 0
												}
											}
										}
									}
								}
							}
						}
						JOINT RightShoulder_virtual
						{
							OFFSET 0.000000 0.000000 0.000000
							CHANNELS 3 Xrotation Yrotation Zrotation
							JOINT RightShoulder
							{
								OFFSET -2.196100 4.412496 0.070690
								CHANNELS 3 Xrotation Yrotation Zrotation
								JOINT RightShoulder_split
								{
									OFFSET -2.196100 4.412496 0.070690
									CHANNELS 3 Xrotation Yrotation Zrotation
									JOINT RightArm
									{
										OFFSET -8.771282 -2.981682 -0.094208
										CHANNELS 3 Xrotation Yrotation Zrotation
										JOINT RightForeArm
										{
											OFFSET -8.494598 0.000000 0.000000
											CHANNELS 3 Xrotation Yrotation Zrotation
											JOINT RightHand
											{
												OFFSET -18.483803 0.000000 0.000001
												CHANNELS 3 Xrotation Yrotation Zrotation
												End Site
												{
													OFFSET 0 0 0
												}
											}
										}
									}
								}
							}
						}
					}
				}
			}
		}
	}
}
MOTION
Frames: 4
Frame Time: 0.03333333
-0.001316 33.491096 -0.886799 0.000000 0.000000 0.000000 2.912696 -29.017796 1.158369 -17.077114 16.719159 17.227375 28.083308 9.558361 -5.136517 -11.722974 -1.475571 -9.413549 -0.184450 0.008008 -0.266056 0.000000 0.000000 0.000000 2.912696 -29.017796 1.158369 -14.528881 0.510439 -12.875065 22.470940 11.010662 2.297398 -11.781176 -2.093084 8.555176 -1.288099 -0.027258 0.150342 0.000000 0.000000 0.000000 2.912696 -29.017796 1.158369 7.836612 -0.331224 -2.653817 1.099255 -0.880540 2.383669 0.000000 0.000000 0.000000 0.000000 0.000000 0.000000 1.108679 -0.590403 2.446524 -3.841321 18.018999 -6.496517 -6.333204 13.021599 0.301390 0.000000 0.000000 0.000000 1.108679 -0.590403 2.446524 -0.055833 -8.758001 -0.067369 0.000000 0.000000 0.000000 -55.250821 0.329429 -41.449379 11.607014 -65.826030 13.026211 0.000000 0.000000 0.000000 1.108679 -0.590403 2.446524 4.849290 7.760136 5.560447 0.000000 0.000000 0.000000 -0.933507 -2.176859 61.845628 11.299284 18.943484 -3.987570 0.000000 0.000000 0.000000 
-0.013307 33.488354 -0.871799 0.000000 0.000000 0.000000 3.094934 -29.034014 1.242701 -17.220765 16.662562 17.254361 28.108727 9.556025 -5.146337 -11.747359 -1.454785 -9.438379 -0.175270 0.007968 -0.276631 0.000000 0.000000 0.000000 3.094934 -29.034014 1.242701 -14.706125 0.505710 -12.865378 22.508028 11.045803 2.288844 -11.804129 -2.074175 8.540374 -1.278660 -0.027691 0.171034 0.000000 0.000000 0.000000 3.094934 -29.034014 1.242701 7.836758 -0.328178 -2.654412 1.098789 -0.869324 2.381755 0.000000 0.000000 0.000000 0.000000 0.000000 0.000000 1.110465 -0.579780 2.444746 -3.800850 18.130553 -6.587807 -6.340685 13.102960 0.312260 0.000000 0.000000 0.000000 1.110465 -0.579780 2.444746 -0.072276 -8.728848 -0.064808 0.000000 0.000000 0.000000 -54.827557 0.180454 -41.050417 11.670634 -66.019133 13.220232 0.000000 0.000000 0.000000 1.110465 -0.579780 2.444746 4.839198 7.844303 5.594998 0.000000 0.000000 0.000000 -0.848534 -2.241855 61.787285 11.331106 18.903925 -3.971936 0.000000 0.000000 0.000000 
-0.026770 33.484211 -0.857416 0.000000 0.000000 0.000000 3.291145 -29.017379 1.323150 -17.380270 16.517025 17.267280 28.193289 9.628973 -5.179688 -11.797725 -1.401979 -9.467295 -0.165780 0.007916 -0.276375 0.000000 0.000000 0.000000 3.291145 -29.017379 1.323150 -14.871673 0.459825 -12.838480 22.549798 11.044174 2.287300 -11.851474 -2.058071 8.512137 -1.277163 -0.027993 0.184460 0.000000 0.000000 0.000000 3.291145 -29.017379 1.323150 7.820378 -0.299014 -2.646186 1.117935 -0.846390 2.364979 0.000000 0.000000 0.000000 0.000000 0.000000 0.000000 1.129927 -0.558665 2.427739 -3.726533 18.293530 -6.716438 -6.418724 13.211865 0.340642 0.000000 0.000000 0.000000 1.129927 -0.558665 2.427739 -0.083040 -8.692241 -0.064152 0.000000 0.000000 0.000000 -54.911880 0.413688 -40.900013 11.726531 -66.225808 13.255930 0.000000 0.000000 0.000000 1.129927 -0.558665 2.427739 4.830481 7.962098 5.611518 0.000000 0.000000 0.000000 -0.812634 -2.366839 61.793213 11.316471 18.639492 -3.971509 0.000000 0.000000 0.000000 
-0.042332 33.477932 -0.844688 0.000000 0.000000 0.000000 3.497844 -28.946523 1.396673 -17.600107 16.262807 17.283189 28.333488 9.701514 -5.219053 -11.845362 -1.333034 -9.494414 -0.154377 0.007847 -0.271430 0.000000 0.000000 0.000000 3.497844 -28.946523 1.396673 -15.036709 0.348224 -12.812427 22.607470 11.048192 2.272972 -11.916821 -2.046603 8.493234 -1.274392 -0.026981 0.139763 0.000000 0.000000 0.000000 3.497844 -28.946523 1.396673 7.802737 -0.253208 -2.634973 1.138350 -0.807845 2.349024 0.000000 0.000000 0.000000 0.000000 0.000000 0.000000 1.150803 -0.522310 2.411883 -3.650571 18.500619 -6.895997 -6.530886 13.361923 0.392013 0.000000 0.000000 0.000000 1.150803 -0.522310 2.411883 -0.084665 -8.656198 -0.065718 0.000000 0.000000 0.000000 -55.018536 0.629104 -40.733223 11.744603 -66.427278 13.255551 0.000000 0.000000 0.000000 1.150803 -0.522310 2.411883 4.818689 8.090129 5.643125 0.000000 0.000000 0.000000 -0.742727 -2.498022 61.818628 11.246337 18.307373 -4.026835 0.000000 0.000000 0.000000 
